<?xml version="1.0" encoding="utf-8"?>
<!-- Generator: Adobe Illustrator 28.0.0, SVG Export Plug-In . SVG Version: 6.00 Build 0)  -->
<svg version="1.1" id="Layer_1" xmlns="http://www.w3.org/2000/svg" xmlns:xlink="http://www.w3.org/1999/xlink" x="0px" y="0px"
	 viewBox="0 0 100 100" style="enable-background:new 0 0 100 100;" xml:space="preserve">
<style type="text/css">
	.st0{fill:#56B747;}
</style>
<g>
	<path class="st0" d="M0.07,23.06c0-2.49,0.42-4.98,1.4-7.27c0.01-0.01,0.01-0.03,0.02-0.04C5.61,6.15,15.13-0.36,26.09-0.35
		c15.69,0.03,31.38,0,47.07,0.02c1.38,0,2.77,0.11,4.14,0.3c4.11,0.56,8,2.12,11.36,4.56c7.43,5.41,11.27,12.75,11.31,21.96
		c0.06,15.76,0.03,31.52,0,47.28c0,1.25-0.08,2.51-0.27,3.75c-1.07,7-4.37,12.72-9.87,17.1c-3.9,3.1-8.34,4.93-13.29,5.53
		c-0.6,0.07-1.21,0.13-1.82,0.2c-16.73,0-33.47,0-50.2,0c-0.11-0.02-0.21-0.05-0.32-0.06c-2.3-0.23-4.6-0.49-6.77-1.29
		C9.43,96.04,3.92,90.69,0.97,82.96c0-0.01-0.01-0.02-0.01-0.03C0.28,81.16,0,79.27,0,77.38L0.07,23.06z M94.07,50.02
		c0-7.89,0-15.77,0-23.66c0-2.87-0.56-5.62-1.69-8.25C89.24,10.81,81.95,5.56,73.12,5.57C57.47,5.59,41.83,5.58,26.19,5.58
		c-1.44,0-2.87,0.12-4.29,0.4C12.2,7.92,5.22,16.42,5.22,26.31c0,15.79,0,31.57,0,47.36c0,2.84,0.56,5.57,1.67,8.18
		c3.11,7.3,10.4,12.61,19.26,12.59c15.65-0.02,31.31,0,46.96-0.01c1.55,0,3.08-0.14,4.6-0.47c9.55-2.07,16.35-10.51,16.35-20.28
		C94.07,65.79,94.07,57.91,94.07,50.02z"/>
	<path class="st0" d="M73.34,50.02c0,13.07-10.64,23.68-23.71,23.67c-13.2-0.01-23.73-10.77-23.69-23.8
		c0.05-12.99,10.62-23.55,23.69-23.58C62.71,26.3,73.34,36.92,73.34,50.02z M49.64,67.77c9.8,0,17.76-7.94,17.76-17.72
		c0.01-9.85-7.9-17.79-17.75-17.81c-9.81-0.02-17.79,7.95-17.79,17.78C31.87,59.81,39.84,67.77,49.64,67.77z"/>
	<path class="st0" d="M70.37,23.35c0-3.27,2.66-5.92,5.93-5.92c3.27,0,5.92,2.65,5.92,5.93c0,3.27-2.66,5.93-5.92,5.92
		C73.03,29.27,70.37,26.61,70.37,23.35z"/>
</g>
</svg>
