<?xml version="1.0" encoding="utf-8"?>
<!-- Generator: Adobe Illustrator 28.0.0, SVG Export Plug-In . SVG Version: 6.00 Build 0)  -->
<svg version="1.1" id="Layer_1" xmlns="http://www.w3.org/2000/svg" xmlns:xlink="http://www.w3.org/1999/xlink" x="0px" y="0px"
	 viewBox="0 0 100 100" style="enable-background:new 0 0 100 100;" xml:space="preserve">
<style type="text/css">
	.st0{fill:#56B747;}
</style>
<g>
	<rect x="2.58" y="33.54" class="st0" width="19.48" height="62.36"/>
	<path class="st0" d="M11.91,4.1C4.72,4.1,0,8.75,0,14.92c0,6.05,4.57,10.82,11.64,10.82h0.16c7.34,0,11.91-4.8,11.87-10.82
		C23.51,8.75,19.09,4.1,11.91,4.1z"/>
	<path class="st0" d="M75.28,32.96c-11.17,0-18.16,6.09-19.45,10.39v-9.8H33.93c0.27,5.19,0,62.36,0,62.36h21.91V62.2
		c0-1.91-0.08-3.79,0.47-5.12c1.48-3.75,4.72-7.65,10.54-7.65c7.61,0,11.05,5.78,11.05,14.21V95.9H100V61.23
		C100,41.94,89.14,32.96,75.28,32.96z"/>
</g>
</svg>
