<?xml version="1.0" encoding="utf-8"?>
<!-- Generator: Adobe Illustrator 28.0.0, SVG Export Plug-In . SVG Version: 6.00 Build 0)  -->
<svg version="1.1" id="Layer_1" xmlns="http://www.w3.org/2000/svg" xmlns:xlink="http://www.w3.org/1999/xlink" x="0px" y="0px"
	 viewBox="0 0 450 89.13" style="enable-background:new 0 0 450 89.13;" xml:space="preserve">
<style type="text/css">
	.st0{fill:#FFFFFF;}
	.st1{clip-path:url(#SVGID_00000133498152669940070630000017765252520418038687_);}
	.st2{fill:#068241;}
	.st3{fill:#56B747;}
	.st4{fill:#0EAB4B;}
</style>
<g>
	<g>
		<g>
			<g>
				<path class="st0" d="M32.58,87.3c1.03,0.32,2.07,0.61,3.13,0.85c4.23,0.96,8.55,1.18,12.87,0.8c0.74-0.06,1.47-0.15,2.2-0.25
					c2.53-0.35,5.02-0.92,7.45-1.7c2.38-0.77,4.7-1.73,6.92-2.89c2.2-1.14,4.3-2.47,6.27-3.96c1.97-1.49,3.81-3.13,5.51-4.92
					c1.7-1.79,3.25-3.72,4.63-5.76c1.39-2.06,2.61-4.23,3.64-6.49c1.04-2.29,1.89-4.67,2.53-7.1c0.65-2.49,1.09-5.03,1.3-7.59
					c0.1-1.25,0.14-2.5,0.16-3.75c0.07-6.67-1.39-12.97-4.03-18.66C85.1,25.94,81.31,35.12,74,38c-0.07,0.03,0.37,3.15,0.41,3.35
					c0.2,2.78,0.2,5.62-0.1,8.4c-0.71,6.91-3.35,13.21-7.48,18.8C61.8,75.32,54.86,80.6,46.77,83.17
					c-4.74,1.52-10.72,1.73-14.7,1.73s-9.58-1.63-9.58-1.63C25.8,84.71,29.12,86.21,32.58,87.3z"/>
				<path class="st0" d="M16.42,76.13c0.78-6.27,4.4-11.68,8.47-16.29c4.57-5.18,9.85-9.75,15-14.39c4-3.56,8.23-6.94,12.02-10.7
					c0.34-0.3,0.64-0.61,0.98-0.91c2.44-2.34,4.81-4.77,6.98-7.38c2.24-2.71,3.96-4.57,5.62-7.62c0.75-1.35,1.46-2.74,1.96-4.2
					c0.61-1.69,1.02-3.28,0.47-5.05c-0.37-1.19-1.05-2.27-1.86-3.18c-0.41-0.47-0.85-0.91-1.32-1.35c-0.14-0.14-1.49-1.08-1.52-0.98
					c-0.47,1.05-1.08,2.37-1.08,2.37c-2.03,4.27-4.5,8.33-7.28,12.16c-2.71,3.76-5.59,7.55-8.87,10.84
					c-3.15,3.18-6.6,6.03-9.96,9.01c-6.98,6.2-13.95,13-19.4,20.62c-2.95,4.1-5.45,8.84-6.3,13.88c0.07-1.69,0.2-3.39,0.41-5.08
					c0.54-4.44,1.83-8.5,4.13-12.36c2.2-3.62,5.01-6.91,7.72-10.13c2.34-2.74,4.98-5.18,7.59-7.69c2.88-2.78,6.03-5.59,8.97-8.26
					c6.77-6.16,13.24-13.55,16.46-22.22c0.47-1.29,0.91-2.61,1.29-3.93c0.1-0.41,0.31-1.08,0.37-1.49
					c-3.15-0.91-6.43-1.52-9.79-1.73c0.02,1.73-0.13,3.15-0.69,5.25c-1.4,5.23-5.35,9.95-8.93,13.75
					C31.9,25.4,24.99,30.78,19.27,37.35c-5.11,5.89-9.18,12.67-12.43,19.74c0.58-6.6,3.52-12.87,7.38-18.25
					c0.3-0.44,0.64-0.88,0.98-1.32c5.69-7.21,13.04-12.94,18.96-19.91c3.49-4.1,6.2-8.13,7.79-13.31c0.48-1.57,0.84-2.92,0.98-4.3
					c-3.96,0.14-7.79,0.81-11.45,1.93c0.35,3.68-0.57,6.78-2.8,9.76c-2.15,2.87-4.63,5.65-7.23,8.1c-2.64,2.49-5.5,4.74-7.94,7.44
					c-2.35,2.6-4.34,5.48-6.08,8.52c-0.09,0.16-0.2,0.31-0.29,0.47c-0.25,0.4-0.49,0.8-0.76,1.19c-0.21,0.3-0.74,1.07-0.74,1.07
					s0.42-2.32,0.81-3.44c0.64-1.85,1.5-3.61,2.48-5.3c1.5-2.58,3.3-4.98,5.24-7.23c0.75-0.86,1.52-1.71,2.31-2.53
					C27.09,8.94,26.69,4.1,26.69,4.1v-0.3C10.97,10.7,0,26.38,0,44.63c0,10.84,3.86,20.76,10.29,28.51c1.83,2.2,3.89,4.27,6.13,6.06
					C16.29,78.03,16.32,76.84,16.42,76.13z"/>
				<g>
					<g>
						<defs>
							<path id="SVGID_1_" d="M60.11,37.59c0,0,0.61-0.17,0.78-0.2c0.27-0.07,0.58-0.17,0.85-0.24c0.54-0.17,1.08-0.34,1.63-0.54
								c1.08-0.37,2.17-0.78,3.25-1.25c1.9-0.81,3.73-1.69,5.49-2.78c1.93-1.19,3.69-2.57,5.15-4.27c1.46-1.69,2.68-3.62,3.66-5.59
								c0.3-0.61,0.58-1.22,0.85-1.83c0.07-0.14,0.3-0.51,0.27-0.68c-1.86-2.84-4.03-5.49-6.47-7.82c-0.2,0.91-0.64,1.83-1.02,2.68
								c-0.58,1.29-1.22,2.57-1.86,3.83c-1.83,3.52-3.66,7.15-5.96,10.36C64.61,32.14,60.11,37.59,60.11,37.59z"/>
						</defs>
						<clipPath id="SVGID_00000119112896945236198870000007697255894715422596_">
							<use xlink:href="#SVGID_1_"  style="overflow:visible;"/>
						</clipPath>
						<g style="clip-path:url(#SVGID_00000119112896945236198870000007697255894715422596_);">
							<polygon class="st2" points="67.63,25.51 51.82,33.91 67.01,43.4 							"/>
							<polygon class="st3" points="68.26,7.61 83.45,17.1 82.81,34.99 							"/>
							<polygon class="st4" points="68.26,7.61 82.81,34.99 67.01,43.4 							"/>
						</g>
					</g>
				</g>
			</g>
			<g>
				<g>
					<g>
						<path class="st0" d="M119.79,69.67l-1.67-4.12h-9.82l-1.67,4.12h-4.94l9.21-21.21h4.94l9.06,21.21H119.79z M109.88,61.7h6.7
							l-3.33-8.24L109.88,61.7z"/>
						<path class="st0" d="M127.12,48.46h4.79v17.03H141v4.18h-13.88V48.46z"/>
						<path class="st0" d="M143.24,58.85h7.82v3.09h-7.82V58.85z"/>
						<path class="st0" d="M165.62,52.77c-1.22-0.39-2.27-0.59-3.14-0.59c-0.83,0-1.48,0.15-1.97,0.45s-0.73,0.75-0.73,1.33
							c0,0.75,0.35,1.32,1.05,1.71c0.7,0.39,1.77,0.8,3.23,1.23c1.45,0.42,2.65,0.85,3.59,1.27c0.94,0.42,1.74,1.06,2.41,1.91
							c0.67,0.85,1,1.97,1,3.36c0,1.35-0.36,2.52-1.08,3.5c-0.72,0.98-1.7,1.72-2.95,2.23c-1.25,0.5-2.68,0.76-4.27,0.76
							c-1.72,0-3.4-0.3-5.06-0.91c-1.66-0.61-3.09-1.43-4.3-2.48l1.91-3.91c1.07,0.97,2.3,1.75,3.7,2.33
							c1.39,0.59,2.67,0.88,3.82,0.88c0.99,0,1.76-0.18,2.32-0.55c0.56-0.36,0.83-0.89,0.83-1.58c0-0.55-0.19-0.99-0.56-1.35
							c-0.37-0.35-0.85-0.64-1.42-0.86c-0.58-0.22-1.37-0.47-2.38-0.76c-1.45-0.4-2.64-0.81-3.56-1.21
							c-0.92-0.4-1.71-1.02-2.38-1.85c-0.67-0.83-1-1.93-1-3.3c0-1.27,0.34-2.39,1.03-3.35c0.69-0.96,1.65-1.7,2.88-2.21
							c1.23-0.52,2.67-0.77,4.3-0.77c1.45,0,2.89,0.21,4.3,0.64c1.41,0.42,2.67,0.99,3.76,1.7l-1.85,3.97
							C168,53.7,166.84,53.17,165.62,52.77z"/>
						<path class="st0" d="M174.42,48.46h4.79v8.85h9.61v-8.85h4.79v21.21h-4.79V61.3h-9.61v8.36h-4.79V48.46z"/>
						<path class="st0" d="M198.27,48.46h4.79v21.21h-4.79V48.46z"/>
						<path class="st0" d="M220.78,69.67l-3.36-6.06h-0.45h-4.42v6.06h-4.79V48.46h9.21c2.77,0,4.91,0.64,6.42,1.92
							c1.51,1.28,2.27,3.1,2.27,5.44c0,1.64-0.34,3.04-1.02,4.2c-0.68,1.16-1.66,2.05-2.95,2.65l4.51,7H220.78z M212.54,59.61h4.42
							c1.33,0,2.36-0.31,3.08-0.92c0.72-0.62,1.08-1.52,1.08-2.71c0-1.17-0.36-2.06-1.08-2.65c-0.72-0.6-1.74-0.89-3.08-0.89h-4.42
							V59.61z"/>
						<path class="st0" d="M245.35,69.67l-1.67-4.12h-9.82l-1.67,4.12h-4.94l9.21-21.21h4.94l9.06,21.21H245.35z M235.44,61.7h6.7
							l-3.33-8.24L235.44,61.7z"/>
						<path class="st0" d="M276.95,48.46h4.94l-7.18,21.21h-4.94l-4.45-15.3l-4.51,15.3h-4.91l-7.15-21.21h5.15l4.61,16.18
							l4.58-16.18h4.7l4.64,16.18L276.95,48.46z"/>
						<path class="st0" d="M284.23,48.46h4.79v21.21h-4.79V48.46z"/>
						<path class="st0" d="M319.01,55.36c1.05,1.09,1.58,2.61,1.58,4.55v9.76h-2.06v-9.27c0-1.52-0.41-2.69-1.23-3.53
							c-0.82-0.84-1.94-1.26-3.38-1.26c-1.7,0.04-3.03,0.63-3.98,1.76c-0.96,1.13-1.44,2.63-1.44,4.48v7.82h-2.06v-9.27
							c0-1.52-0.41-2.69-1.23-3.53c-0.82-0.84-1.94-1.26-3.38-1.26c-1.7,0.04-3.03,0.63-4,1.76c-0.97,1.13-1.45,2.63-1.45,4.48v7.82
							h-2.03V53.79h2.03v3.73c0.52-1.25,1.31-2.19,2.35-2.82c1.04-0.63,2.31-0.95,3.8-0.97c1.51,0,2.77,0.37,3.77,1.12
							c1,0.75,1.66,1.8,1.98,3.15c0.49-1.41,1.27-2.47,2.35-3.18c1.08-0.71,2.41-1.07,3.98-1.09
							C316.5,53.73,317.96,54.27,319.01,55.36z"/>
						<path class="st0" d="M335.98,69.67L335.95,67c-0.63,0.93-1.44,1.62-2.45,2.08s-2.17,0.68-3.48,0.68
							c-1.07,0-2.02-0.21-2.83-0.62c-0.82-0.41-1.45-0.98-1.89-1.71c-0.44-0.73-0.67-1.55-0.67-2.45c0-1.37,0.53-2.45,1.59-3.24
							c1.06-0.79,2.52-1.18,4.38-1.18h5.33v-1.21c0-1.25-0.37-2.22-1.12-2.91c-0.75-0.69-1.84-1.03-3.27-1.03
							c-1.7,0-3.4,0.64-5.12,1.91l-0.91-1.39c1.07-0.75,2.09-1.3,3.06-1.65c0.97-0.35,2.08-0.53,3.33-0.53
							c1.92,0,3.4,0.48,4.45,1.44c1.05,0.96,1.59,2.29,1.61,3.98l0.03,10.51H335.98z M333.97,67.08c0.98-0.66,1.64-1.58,1.98-2.77
							v-2.18h-5.12c-1.39,0-2.45,0.23-3.18,0.7c-0.73,0.46-1.09,1.16-1.09,2.09c0,0.95,0.35,1.71,1.05,2.29
							c0.7,0.58,1.62,0.86,2.77,0.86C331.79,68.06,332.99,67.73,333.97,67.08z"/>
						<path class="st0" d="M349.71,55.52c-1.13,0-2.15,0.26-3.06,0.79c-0.91,0.53-1.62,1.26-2.12,2.2
							c-0.51,0.94-0.76,2.01-0.76,3.23c0,1.21,0.25,2.29,0.76,3.24c0.5,0.95,1.21,1.69,2.12,2.21c0.91,0.53,1.93,0.79,3.06,0.79
							c1.03,0,1.97-0.18,2.83-0.55c0.86-0.36,1.58-0.89,2.17-1.58l1.15,1.21c-0.71,0.85-1.6,1.51-2.67,1.97
							c-1.07,0.46-2.26,0.7-3.58,0.7c-1.51,0-2.87-0.34-4.06-1.02c-1.19-0.68-2.13-1.63-2.8-2.85c-0.68-1.22-1.02-2.6-1.02-4.14
							c0-1.54,0.34-2.91,1.02-4.14c0.68-1.22,1.61-2.17,2.8-2.85c1.19-0.68,2.55-1.02,4.06-1.02c1.23,0,2.36,0.2,3.38,0.61
							c1.02,0.4,1.89,0.97,2.62,1.7l-1.15,1.36C353.17,56.14,351.59,55.52,349.71,55.52z"/>
						<path class="st0" d="M373.36,55.38c1.08,1.1,1.62,2.61,1.62,4.53v9.76h-2.06v-9.27c0-1.49-0.41-2.67-1.24-3.51
							c-0.83-0.85-1.98-1.27-3.45-1.27c-1.76,0.02-3.14,0.6-4.14,1.74c-1,1.14-1.5,2.65-1.5,4.53v7.79h-2.03V47.18h2.03v10.36
							c1.07-2.5,3.17-3.78,6.3-3.82C370.79,53.73,372.28,54.28,373.36,55.38z"/>
						<path class="st0" d="M382.43,48.2c0.26,0.27,0.39,0.61,0.39,1.02c0,0.4-0.14,0.75-0.41,1.03c-0.27,0.28-0.6,0.42-0.99,0.42
							c-0.4,0-0.74-0.14-1.02-0.42c-0.27-0.28-0.41-0.63-0.41-1.03c0-0.4,0.14-0.74,0.41-1.02c0.27-0.27,0.61-0.41,1.02-0.41
							C381.83,47.79,382.17,47.93,382.43,48.2z M380.4,53.79h2.03v15.88h-2.03V53.79z"/>
						<path class="st0" d="M401.11,55.38c1.08,1.1,1.62,2.61,1.62,4.53v9.76h-2.06v-9.27c0-1.49-0.41-2.67-1.24-3.51
							c-0.83-0.85-1.98-1.27-3.45-1.27c-1.64,0.02-2.94,0.53-3.92,1.51c-0.98,0.99-1.54,2.32-1.68,4v8.54h-2.03V53.79h2.03v3.7
							c0.55-1.23,1.35-2.16,2.41-2.79c1.06-0.63,2.35-0.95,3.86-0.97C398.54,53.73,400.03,54.28,401.11,55.38z"/>
						<path class="st0" d="M419.97,56.08c1.29,1.57,1.89,3.67,1.79,6.32h-13.24c0.14,1.7,0.77,3.07,1.88,4.11
							c1.11,1.04,2.48,1.56,4.12,1.56c1.01,0,1.95-0.18,2.82-0.55c0.87-0.36,1.62-0.88,2.24-1.55l1.15,1.15
							c-0.77,0.83-1.69,1.47-2.77,1.92c-1.08,0.45-2.27,0.68-3.56,0.68c-1.54,0-2.9-0.34-4.09-1.02c-1.19-0.68-2.13-1.62-2.8-2.83
							c-0.68-1.21-1.02-2.6-1.02-4.15c0-1.54,0.34-2.91,1.02-4.14c0.68-1.22,1.61-2.17,2.8-2.85c1.19-0.68,2.53-1.02,4.03-1.02
							C416.8,53.73,418.68,54.51,419.97,56.08z M419.94,60.82c-0.1-1.66-0.65-2.97-1.65-3.95c-1-0.98-2.31-1.47-3.92-1.47
							c-1.6,0-2.93,0.5-4,1.48c-1.07,0.99-1.69,2.3-1.85,3.94H419.94z"/>
						<path class="st0" d="M430.29,54.71c0.98-0.64,2.16-0.96,3.53-0.99v1.91c-1.68-0.02-3.02,0.47-4.04,1.47
							c-1.02,1-1.6,2.36-1.74,4.08v8.48H426V53.79h2.03v3.7C428.56,56.27,429.31,55.35,430.29,54.71z"/>
						<path class="st0" d="M440.74,74.7c-0.8,0.63-1.71,0.94-2.74,0.94c-1.23,0-2.32-0.36-3.27-1.09l0.91-1.58
							c0.71,0.48,1.46,0.73,2.27,0.73c0.65,0,1.23-0.21,1.76-0.64c0.52-0.42,0.96-1.04,1.3-1.85l0.67-1.64l-6.58-15.79h2.15
							l5.45,13.64l5.24-13.64H450l-7.33,18.15C442.18,73.15,441.54,74.07,440.74,74.7z"/>
					</g>
				</g>
				<g>
					<path class="st4" d="M419.71,77.69h1.06v9.82h4.75v0.96h-5.81V77.69z"/>
					<path class="st4" d="M427.92,87.39c0.13,0.13,0.2,0.3,0.2,0.49c0,0.2-0.07,0.36-0.2,0.5c-0.13,0.14-0.3,0.21-0.49,0.21
						c-0.2,0-0.36-0.07-0.49-0.2c-0.13-0.13-0.19-0.3-0.19-0.51c0-0.2,0.06-0.36,0.19-0.49s0.29-0.2,0.49-0.2
						C427.62,87.19,427.78,87.26,427.92,87.39z"/>
					<path class="st4" d="M430.62,77.69h1.06v9.82h4.75v0.96h-5.81V77.69z"/>
					<path class="st4" d="M438.82,87.39c0.13,0.13,0.2,0.3,0.2,0.49c0,0.2-0.07,0.36-0.2,0.5c-0.13,0.14-0.3,0.21-0.49,0.21
						s-0.36-0.07-0.49-0.2c-0.13-0.13-0.19-0.3-0.19-0.51c0-0.2,0.06-0.36,0.19-0.49s0.29-0.2,0.49-0.2S438.69,87.26,438.82,87.39z"
						/>
					<path class="st4" d="M447.86,78.9c-0.57-0.24-1.15-0.35-1.76-0.35c-0.83,0-1.6,0.2-2.29,0.6c-0.69,0.4-1.24,0.95-1.65,1.64
						s-0.61,1.45-0.61,2.27s0.2,1.58,0.61,2.27c0.41,0.69,0.96,1.24,1.65,1.64c0.69,0.41,1.46,0.61,2.29,0.61
						c0.6,0,1.18-0.12,1.74-0.35c0.56-0.23,1.07-0.55,1.51-0.96l0.65,0.69c-0.53,0.49-1.15,0.88-1.84,1.17
						c-0.69,0.29-1.39,0.43-2.11,0.43c-1.02,0-1.95-0.25-2.81-0.74c-0.85-0.49-1.53-1.16-2.03-2c-0.5-0.84-0.75-1.76-0.75-2.76
						s0.25-1.91,0.76-2.74c0.5-0.83,1.19-1.49,2.04-1.98c0.86-0.49,1.8-0.73,2.81-0.73c0.73,0,1.43,0.14,2.11,0.41
						c0.68,0.27,1.27,0.65,1.79,1.13l-0.63,0.74C448.92,79.46,448.42,79.13,447.86,78.9z"/>
				</g>
				<g>
					<g>
						<g>
							<path class="st0" d="M128.09,21.46h-8.01l-0.69,0.02l-1.12,0.02l0.03-1.12c0.06-2.55,2.21-4.62,4.79-4.62h11.65v-1.89H123.1
								c-3.69,0-6.69,2.97-6.69,6.63v2.94l3.67-0.08l8.01,0c2.64,0,4.8,2.12,4.8,4.74v0.59v1.07h-1.07h-20.99
								c-3.99,0-7.24-3.21-7.24-7.16v-7.26h-1.89v7.26c0,4.99,4.1,9.05,9.13,9.05h23.95v-3.55
								C134.78,24.43,131.78,21.46,128.09,21.46z"/>
							<path class="st0" d="M196.1,15.35c0,0.78,0.64,1.42,1.42,1.42c0.78,0,1.42-0.64,1.42-1.42c0-0.78-0.64-1.42-1.42-1.42
								C196.73,13.93,196.1,14.56,196.1,15.35z"/>
							<path class="st0" d="M193.31,16.77c0.78,0,1.42-0.64,1.42-1.42c0-0.78-0.64-1.42-1.42-1.42c-0.78,0-1.42,0.64-1.42,1.42
								C191.89,16.13,192.52,16.77,193.31,16.77z"/>
							<circle class="st0" cx="120.34" cy="35.46" r="1.42"/>
							<circle class="st0" cx="116.13" cy="35.46" r="1.42"/>
							<g>
								<circle class="st0" cx="171.94" cy="35.46" r="1.42"/>
								<circle class="st0" cx="167.73" cy="35.46" r="1.42"/>
							</g>
							<circle class="st0" cx="195.41" cy="12.41" r="1.42"/>
							<path class="st0" d="M153.46,16.77c0.78,0,1.42-0.64,1.42-1.42c0-0.78-0.64-1.42-1.42-1.42c-0.78,0-1.42,0.64-1.42,1.42
								C152.04,16.13,152.68,16.77,153.46,16.77z"/>
							<path class="st0" d="M241.89,18.83c-3.56,0-6.46,2.9-6.46,6.46v4.41h-25.37c-2.1,0-3.81-1.71-3.81-3.81v-7.06h-1.94v7.06
								c0,2.1-1.71,3.81-3.81,3.81c-2.1,0-3.81-1.71-3.81-3.81v-7.06h-1.94v7.06c0,2.1-1.71,3.81-3.81,3.81
								c-2.1,0-3.81-1.71-3.81-3.81v-7.06h-1.94v7.06c0,2.1-1.71,3.81-3.81,3.81h-6.8c-2.1,0-3.81-1.71-3.81-3.81v-7.06h-0.06h-1.88
								h-0.06v7.06c0,2.1-1.71,3.81-3.81,3.81h-2.45h-1.63h-2.72c-2.1,0-3.81-1.71-3.81-3.81v-7.06h-0.06h-1.88h-0.06v7.06
								c0,2.1-1.71,3.81-3.81,3.81h-4.08V18.82h-1.94v12.03c0,1.19-1.59,2.31-2.12,2.68c-1.43,1.01-2.76,1.44-4.33,1.4l-0.05,1.94
								c0.08,0,0.15,0,0.23,0c1.89,0,3.56-0.56,5.26-1.76c1.09-0.77,2.48-1.92,2.84-3.49h4.17c2.01,0,3.78-1.04,4.8-2.61
								c1.03,1.57,2.79,2.61,4.8,2.61h2.63h1.72h2.45c2.01,0,3.78-1.04,4.8-2.61c1.01,1.54,2.72,2.56,4.69,2.6v0.01h6.92
								c1.99,0,3.74-1.02,4.77-2.56c1.03,1.54,2.79,2.56,4.77,2.56s3.74-1.02,4.77-2.56c1.03,1.54,2.79,2.56,4.77,2.56
								c1.99,0,3.74-1.02,4.77-2.56c0.93,1.38,2.44,2.34,4.17,2.52v0.03h25.97h3.04h4c3.56,0,6.45-2.9,6.45-6.46v-6.34H241.89z
								 M247,25.17c0,2.49-2.03,4.52-4.52,4.52h-4h-1.1v-4.41c0-2.49,2.03-4.52,4.52-4.52h5.1V25.17z"/>
						</g>
					</g>
					<path class="st4" d="M114.55,11.71h1.2V9.78c0-0.7,0.58-1.28,1.3-1.28h5.69c1.72,0,3.13-1.39,3.13-3.1V2.35h-3.4
						c-1.72,0-3.13,1.39-3.13,3.1v1.85h-2.29c-1.38,0-2.49,1.11-2.49,2.47V11.71z M120.53,5.46c0-1.05,0.87-1.9,1.93-1.9h2.2V5.4
						c0,1.05-0.87,1.9-1.93,1.9h-2.2V5.46z"/>
					<path class="st4" d="M103.07,9.78c0-0.7,0.58-1.28,1.3-1.28h5.69c1.72,0,3.13-1.39,3.13-3.1V2.35h-3.4
						c-1.72,0-3.13,1.39-3.13,3.1v1.85h-2.29c-1.38,0-2.49,1.11-2.49,2.47v1.93h1.2V9.78z M107.85,5.46c0-1.05,0.87-1.9,1.93-1.9
						h2.2V5.4c0,1.05-0.87,1.9-1.93,1.9h-2.2V5.46z"/>
					<path class="st4" d="M131.77,2.36v1.19c1,0,1.82,0.81,1.82,1.79V7.2h-4.86v1.19h6.05V5.34C134.78,3.7,133.43,2.36,131.77,2.36z
						"/>
					<g>
						<g>
							<ellipse class="st0" cx="405.17" cy="13.37" rx="1.99" ry="1.97"/>
							<ellipse class="st0" cx="399.27" cy="13.37" rx="1.99" ry="1.97"/>
							<ellipse class="st0" cx="402.22" cy="9.3" rx="1.99" ry="1.97"/>
							<path class="st0" d="M368.88,38.74c-1.1,0-1.99,0.88-1.99,1.97c0,1.09,0.89,1.97,1.99,1.97s1.99-0.88,1.99-1.97
								C370.87,39.62,369.98,38.74,368.88,38.74z"/>
							<ellipse class="st0" cx="362.98" cy="40.71" rx="1.99" ry="1.97"/>
							<path class="st0" d="M283.09,38.74c-1.1,0-1.99,0.88-1.99,1.97c0,1.09,0.89,1.97,1.99,1.97s1.99-0.88,1.99-1.97
								C285.08,39.62,284.19,38.74,283.09,38.74z"/>
							<path class="st0" d="M277.19,38.74c-1.1,0-1.99,0.88-1.99,1.97c0,1.09,0.89,1.97,1.99,1.97c1.1,0,1.99-0.88,1.99-1.97
								C279.18,39.62,278.29,38.74,277.19,38.74z"/>
							<path class="st0" d="M301.61,26.87c0,4.97,3.33,9.01,7.43,9.01h10.59v-4.03h-10.59c-1.84,0-3.4-2.28-3.4-4.98
								c0-2.7,1.56-4.98,3.4-4.98h12.46v13.87c0,1.71-0.79,2.33-1.39,2.64c-0.86,0.45-1.8,0.48-1.79,0.48l-8.46,0.15l0.07,4.03
								l8.41-0.15c2.9-0.01,7.18-1.92,7.18-7.15v-17.9h-16.49C304.95,17.86,301.61,21.9,301.61,26.87z"/>
							<path class="st0" d="M436.65,26.31c0,5.49-4.32,6.09-6.17,6.09h-3.85c-3.4,0-6.17-2.73-6.17-6.09v-8.34h-4.03v8.34
								c0,3.36-2.77,6.09-6.17,6.09s-6.17-2.73-6.17-6.09v-8.34h-4.03v8.34c0,3.36-2.77,6.09-6.17,6.09s-6.17-2.73-6.17-6.09v-8.34
								h-4.03v8.34c0,3.36-2.77,6.09-6.17,6.09h-3.48c-3.4,0-6.17-2.73-6.17-6.09v-8.34h-4.03v8.34c0,3.36-3.24,6.09-7.22,6.09
								c-3.98,0-7.22-2.73-7.22-6.09v-2.75v-5.59h-4.03v5.59v2.75v9.71c0,0.21-0.17,0.82-1.78,1.94c-1.31,0.91-2.52,1.3-3.93,1.27
								l-0.09,0l-6.15,0.39l0.25,4.02l5.98-0.38c2.25,0.04,4.24-0.6,6.25-2c1.5-1.05,3.5-2.74,3.5-5.25v-1.95
								c1.95,1.47,4.47,2.37,7.22,2.37c3.76,0,7.09-1.67,9.13-4.22c1.85,2.56,4.88,4.22,8.28,4.22h3.48c3.35,0,6.33-1.61,8.19-4.09
								c1.86,2.48,4.84,4.09,8.19,4.09s6.33-1.61,8.19-4.09c1.86,2.48,4.84,4.09,8.19,4.09s6.33-1.61,8.19-4.09
								c1.67,2.22,4.23,3.74,7.16,4.04v0.05h4.88c5.08,0,10.2-3.13,10.2-10.12V10.29h-4.03V26.31z"/>
							<rect x="445.97" y="10.12" class="st0" width="4.03" height="25"/>
							<rect x="332.02" y="10.12" class="st0" width="4.03" height="25"/>
							<path class="st0" d="M289,24.08h-8.01l-0.71,0.02c0.05-1.98,1.7-3.58,3.72-3.58h12.73v-4.03h-12.73
								c-4.28,0-7.76,3.45-7.76,7.7v4.04l4.76-0.11H289c2.05,0,3.73,1.64,3.73,3.67v0.59h-20.99c-3.4,0-6.17-2.73-6.17-6.09v-8.34
								h-4.03v8.34c0,5.58,4.58,10.12,10.2,10.12h25.02v-4.62C296.76,27.53,293.28,24.08,289,24.08z"/>
						</g>
					</g>
					<path class="st4" d="M113.86,8.56c0.4,0,0.72-0.32,0.72-0.72c0-0.4-0.32-0.72-0.72-0.72c-0.4,0-0.72,0.32-0.72,0.72
						C113.14,8.24,113.47,8.56,113.86,8.56z"/>
					<path class="st4" d="M127.28,8.56c0.4,0,0.72-0.32,0.72-0.72c0-0.4-0.32-0.72-0.72-0.72s-0.72,0.32-0.72,0.72
						C126.56,8.24,126.88,8.56,127.28,8.56z"/>
					<ellipse class="st4" cx="132" cy="1.25" rx="0.72" ry="0.72"/>
				</g>
			</g>
		</g>
	</g>
</g>
</svg>
